<?xml version="1.0" encoding="utf-8"?>
<!-- Generator: Adobe Illustrator 25.2.3, SVG Export Plug-In . SVG Version: 6.00 Build 0)  -->
<svg version="1.1" id="Layer_1" xmlns="http://www.w3.org/2000/svg" xmlns:xlink="http://www.w3.org/1999/xlink" x="0px" y="0px"
	 viewBox="0 0 356.2 356.2" style="enable-background:new 0 0 356.2 356.2;" xml:space="preserve">
<style type="text/css">
	.st0{fill:#FFFFFF;}
	.st1{fill:none;}
	.st2{fill:#FFFFFF;stroke:#000000;stroke-width:3;stroke-linecap:round;stroke-miterlimit:10;}
	.st3{stroke:#000000;stroke-width:3;stroke-linecap:round;stroke-miterlimit:10;}
</style>
<g>
	<g>
		<g>
			<circle class="st0" cx="178.1" cy="178.1" r="154"/>
			<path d="M178.1,42.6c36.2,0,70.2,14.1,95.8,39.7c25.6,25.6,39.7,59.6,39.7,95.8s-14.1,70.2-39.7,95.8
				c-25.6,25.6-59.6,39.7-95.8,39.7s-70.2-14.1-95.8-39.7c-25.6-25.6-39.7-59.6-39.7-95.8s14.1-70.2,39.7-95.8
				C107.9,56.7,141.9,42.6,178.1,42.6 M178.1,5.6C82.8,5.6,5.6,82.8,5.6,178.1s77.2,172.5,172.5,172.5s172.5-77.2,172.5-172.5
				S273.3,5.6,178.1,5.6L178.1,5.6z"/>
		</g>
		<path id="SVGID_x5F_1_x5F_" class="st1" d="M321.6,181.1c0,80.8-64.4,146.2-143.9,146.2S33.8,261.8,33.8,181.1
			S98.3,34.8,177.7,34.8S321.6,100.3,321.6,181.1z"/>
		<text>		<textPath  xlink:href="#SVGID_x5F_1_x5F_" startOffset="15107.7959%">
<tspan  class="st0" style="font-family:'BrandonGrotesque-Black'; font-size:25.6924px;">STUFFED ANIMAL RESCUE AID SOCIETY</tspan>		</textPath>
</text>
		<g>
			<g>
				<path class="st2" d="M120.5,248.2c-1.7,0-3.4-0.4-4.8-1.3c-4.8-3-13.5-10.9-11.4-25c2.6-17.7,13.5-21.8,19.9-21.8
					c6.4,0,9.9,0.3,15.1,4.8c0,0,7.3-3.7,9.4-6.5c5.2-7.2,5.7-24.3,8.3-25.5c0,0-18.3,1-27-17.3c-8.7-18.3,7.1-29.2,7.1-29.2
					s-5.6-24.4,13.5-38.8c18.8-14.2,44.1-4.6,52.3,5.5c7.5,9.3,10.5,19.9,9.2,41.7c0,0,13.2,6.4,21.3,17c8,10.6,17.7,42,14.4,57.5
					c-0.7,3.4-1.8,7.1-3,10.9c4.8,2.5,7.9,7.6,7.4,13.5c-0.6,6.3-5.5,11.5-11.7,12.4c-1.6,0.2-3.2,0.2-4.8-0.1
					c-1-0.2-1.9,0.1-2.6,0.9c0,0,0,0,0,0c-0.2,0.2-0.5,0.4-0.8,0.4L120.5,248.2z"/>
				<path class="st3" d="M120.4,248.9c-1.8,0-3.6-0.5-5.1-1.4c-3.3-2.1-14-10.1-11.8-25.7c3.1-21.4,17.7-22.4,20.6-22.4
					c6.1,0,9.9,0.2,15.2,4.7c1.6-0.8,7-3.8,8.7-6.1c2.9-3.9,4.3-11,5.4-16.6c0.8-3.8,1.3-6.3,2-7.8c-4.6-0.2-18.8-2.3-26.2-17.7
					c-8-17,4.5-27.9,6.9-29.8c-0.6-3.5-3.9-25.7,13.8-39.1c8.5-6.4,19.4-8.7,30.7-6.5c9.2,1.8,18.1,6.5,22.6,12.1
					c8,9.8,10.6,21.2,9.4,41.7c2.4,1.2,13.9,7.5,21.1,17c4,5.3,8.5,15.7,11.6,27.2c3.4,12.5,4.5,23.8,3,30.9
					c-0.6,3.1-1.6,6.5-2.8,10.4c4.9,2.8,7.8,8.2,7.3,13.9c-0.6,6.6-5.8,12.1-12.4,13.1c-1.7,0.2-3.4,0.2-5-0.1
					c-0.7-0.1-1.4,0.1-1.9,0.6c-0.3,0.4-0.8,0.6-1.3,0.6l-111.8,1.3C120.5,248.9,120.4,248.9,120.4,248.9z M120.5,247.4l0,0.7
					L120.5,247.4l111.8-1.3c0.1,0,0.2,0,0.3-0.1c0.8-0.9,2-1.4,3.3-1.1c1.5,0.3,3,0.3,4.5,0.1c5.9-0.8,10.6-5.8,11.1-11.8
					c0.5-5.3-2.3-10.3-7-12.8c-0.3-0.2-0.5-0.5-0.4-0.9c1.3-4,2.3-7.6,3-10.8c3.2-15.4-6.6-46.7-14.3-56.9
					c-7.8-10.3-20.9-16.8-21-16.8c-0.3-0.1-0.4-0.4-0.4-0.7c1.2-20.5-1.3-31.6-9.1-41.2c-4.3-5.3-12.9-9.8-21.7-11.6
					c-10.9-2.1-21.4,0.1-29.6,6.2c-18.5,14-13.3,37.9-13.2,38.1c0.1,0.3-0.1,0.6-0.3,0.8c-0.6,0.4-15.1,10.8-6.8,28.3
					c8.3,17.6,26.1,16.9,26.3,16.9c0.3,0,0.6,0.2,0.7,0.5c0.1,0.3-0.1,0.7-0.4,0.8c-0.8,0.4-1.7,4.7-2.4,8.1
					c-1.2,5.8-2.6,13-5.7,17.2c-2.2,3-9.3,6.6-9.6,6.8c-0.3,0.1-0.6,0.1-0.8-0.1c-5.1-4.4-8.5-4.6-14.6-4.6c-2.7,0-16.3,1-19.2,21.2
					c-2.1,14.7,8,22.3,11.1,24.3C117.4,247,118.9,247.5,120.5,247.4z"/>
			</g>
			<g>
				<path class="st3" d="M206.6,232.9C206.6,232.9,206.6,232.9,206.6,232.9c-10.1-1-18.7-12.6-19-21.6c-0.2-6.4,6-15.3,9.7-20.5
					c1.2-1.7,2.2-3.2,2.6-3.9c0.8-1.8-3.5-11.6-6.7-18c-0.2-0.4,0-0.8,0.3-1c0.4-0.2,0.8,0,1,0.3c0,0,2,4,3.9,8.3
					c3.4,8,3.3,10.1,2.9,11c-0.4,0.8-1.3,2.2-2.7,4.1c-3.6,5.1-9.7,13.7-9.4,19.6c0.2,4,2.2,8.8,5.4,12.8c3.5,4.3,7.9,7,12.3,7.4
					c0.4,0,0.7,0.4,0.6,0.8C207.3,232.6,207,232.9,206.6,232.9z"/>
			</g>
			<g>
				<path class="st3" d="M149.3,219.6c-0.3,0-0.6-0.2-0.7-0.5c0-0.1-2.8-7-9.9-13.8c-0.3-0.3-0.3-0.7,0-1c0.3-0.3,0.7-0.3,1,0
					c7.4,7.1,10.1,14,10.2,14.3c0.1,0.4,0,0.8-0.4,0.9C149.5,219.6,149.4,219.6,149.3,219.6z"/>
			</g>
			<g>
				<path class="st3" d="M129.6,156.4l-0.3-0.6c-6-12.2-0.2-21.2,0-21.6l0.5-0.8l0.6,0.7c0.2,0.2,4.4,5.1,5.3,11.9
					c1,7.2-5.5,10-5.6,10.1L129.6,156.4z M130,135.9c-1.2,2.4-3.9,9.6,0.3,18.6c1.4-0.8,4.8-3.3,4.1-8.2
					C133.7,141.4,131.2,137.5,130,135.9z"/>
			</g>
			<g>
				<path class="st3" d="M150.1,126.7h1.6c0.4,0,0.6,0.5,0.4,0.8l-0.6,0.7c-0.3,0.3-0.7,0.4-1.1,0.3c-0.3-0.1-0.5-0.2-0.8-0.4
					C149,127.5,149.3,126.7,150.1,126.7z"/>
			</g>
			<g>
				<path class="st2" d="M178,98.9c0,0,11.7-3.9,16.9,6.5c4.8,9.6-4.5,17-4.5,17"/>
				<path class="st3" d="M190.5,123.1c-0.2,0-0.4-0.1-0.6-0.3c-0.2-0.3-0.2-0.8,0.1-1c0,0,2.3-1.8,3.9-4.7c2.1-3.8,2.3-7.6,0.4-11.4
					c-2-4-5.3-6.3-9.8-6.7c-3.4-0.3-6.2,0.6-6.3,0.6c-0.4,0.1-0.8-0.1-0.9-0.5c-0.1-0.4,0.1-0.8,0.5-0.9c0.1,0,12.4-3.9,17.8,6.8
					c5,10-4.5,17.8-4.6,17.9C190.8,123,190.6,123.1,190.5,123.1z"/>
			</g>
		</g>
	</g>
	<g>
		<path class="st0" d="M168.7,334.2L168.7,334.2c-0.4-0.3-0.7-0.5-0.9-0.7c-1.2-1.2-1.8-2.7-1.8-4.4s0.6-3.2,1.8-4.4
			c1.2-1.2,2.7-1.8,4.4-1.8c1.6,0,3.2,0.6,4.3,1.8l0.7,0.7l0.7-0.7c1.2-1.1,2.7-1.8,4.3-1.8c1.7,0,3.2,0.6,4.4,1.8
			c1.2,1.2,1.8,2.7,1.8,4.4s-0.6,3.2-1.8,4.4c-0.2,0.2-0.5,0.4-0.8,0.7l-0.1,0l-8.6,8.6L168.7,334.2z"/>
		<path d="M182.3,323.8c1.4,0,2.7,0.5,3.7,1.5c1,1,1.5,2.3,1.5,3.7s-0.5,2.7-1.5,3.7c-0.2,0.2-0.4,0.4-0.7,0.5l-0.1,0.1l-0.1,0.1
			l-7.8,7.8l-7.8-7.8l-0.1-0.1l-0.1-0.1c-0.3-0.2-0.5-0.4-0.7-0.6c-2-2-2-5.4,0-7.4c1-1,2.3-1.5,3.7-1.5c1.4,0,2.7,0.5,3.6,1.5
			l1.4,1.4l1.4-1.4C179.6,324.3,180.9,323.8,182.3,323.8 M182.3,321.8c-1.8,0-3.6,0.7-5,2c-1.4-1.4-3.2-2-5-2
			c-1.8,0-3.7,0.7-5.1,2.1c-2.8,2.8-2.8,7.4,0,10.2c0.3,0.3,0.6,0.6,0.9,0.8l9.2,9.2l9.2-9.2c0.3-0.2,0.6-0.5,0.9-0.8
			c2.8-2.8,2.8-7.4,0-10.2C186,322.5,184.1,321.8,182.3,321.8L182.3,321.8z"/>
	</g>
</g>
</svg>
