<?xml version="1.0" encoding="utf-8"?>
<!-- Generator: Adobe Illustrator 25.2.3, SVG Export Plug-In . SVG Version: 6.00 Build 0)  -->
<svg version="1.1" id="Layer_1" xmlns="http://www.w3.org/2000/svg" xmlns:xlink="http://www.w3.org/1999/xlink" x="0px" y="0px"
	 viewBox="0 0 356.2 356.2" style="enable-background:new 0 0 356.2 356.2;" xml:space="preserve">
<style type="text/css">
	.st0{fill:#FFFFFF;}
	.st1{font-family:'ArialMT';}
	.st2{font-size:12px;}
	.st3{fill:#FFFFFF;stroke:#000000;stroke-width:3;stroke-linecap:round;stroke-miterlimit:10;}
	.st4{stroke:#000000;stroke-width:3;stroke-linecap:round;stroke-miterlimit:10;}
</style>
<g>
	<g>
		<g>
			<circle class="st0" cx="178.1" cy="178.1" r="154"/>
			<path d="M178.1,42.6c36.2,0,70.2,14.1,95.8,39.7s39.7,59.6,39.7,95.8s-14.1,70.2-39.7,95.8s-59.6,39.7-95.8,39.7
				s-70.2-14.1-95.8-39.7s-39.7-59.6-39.7-95.8s14.1-70.2,39.7-95.8S141.9,42.6,178.1,42.6 M178.1,5.6C82.8,5.6,5.6,82.8,5.6,178.1
				s77.2,172.5,172.5,172.5s172.5-77.2,172.5-172.5S273.3,5.6,178.1,5.6L178.1,5.6z"/>
		</g>
		<path id="SVGID_x5F_1_x5F_" class="st0" d="M321.6,181.1c0,80.8-64.4,146.2-143.9,146.2S33.8,261.8,33.8,181.1
			S98.3,34.8,177.7,34.8S321.6,100.3,321.6,181.1z"/>
		<text class="st1 st2"> </text>
		<g>
			<g>
				<path class="st3" d="M120.5,248.2c-1.7,0-3.4-0.4-4.8-1.3c-4.8-3-13.5-10.9-11.4-25c2.6-17.7,13.5-21.8,19.9-21.8
					c6.4,0,9.9,0.3,15.1,4.8c0,0,7.3-3.7,9.4-6.5c5.2-7.2,5.7-24.3,8.3-25.5c0,0-18.3,1-27-17.3s7.1-29.2,7.1-29.2
					s-5.6-24.4,13.5-38.8c18.8-14.2,44.1-4.6,52.3,5.5c7.5,9.3,10.5,19.9,9.2,41.7c0,0,13.2,6.4,21.3,17c8,10.6,17.7,42,14.4,57.5
					c-0.7,3.4-1.8,7.1-3,10.9c4.8,2.5,7.9,7.6,7.4,13.5c-0.6,6.3-5.5,11.5-11.7,12.4c-1.6,0.2-3.2,0.2-4.8-0.1
					c-1-0.2-1.9,0.1-2.6,0.9l0,0c-0.2,0.2-0.5,0.4-0.8,0.4L120.5,248.2z"/>
				<path class="st4" d="M120.4,248.9c-1.8,0-3.6-0.5-5.1-1.4c-3.3-2.1-14-10.1-11.8-25.7c3.1-21.4,17.7-22.4,20.6-22.4
					c6.1,0,9.9,0.2,15.2,4.7c1.6-0.8,7-3.8,8.7-6.1c2.9-3.9,4.3-11,5.4-16.6c0.8-3.8,1.3-6.3,2-7.8c-4.6-0.2-18.8-2.3-26.2-17.7
					c-8-17,4.5-27.9,6.9-29.8c-0.6-3.5-3.9-25.7,13.8-39.1c8.5-6.4,19.4-8.7,30.7-6.5c9.2,1.8,18.1,6.5,22.6,12.1
					c8,9.8,10.6,21.2,9.4,41.7c2.4,1.2,13.9,7.5,21.1,17c4,5.3,8.5,15.7,11.6,27.2c3.4,12.5,4.5,23.8,3,30.9
					c-0.6,3.1-1.6,6.5-2.8,10.4c4.9,2.8,7.8,8.2,7.3,13.9c-0.6,6.6-5.8,12.1-12.4,13.1c-1.7,0.2-3.4,0.2-5-0.1
					c-0.7-0.1-1.4,0.1-1.9,0.6c-0.3,0.4-0.8,0.6-1.3,0.6l-111.8,1.3C120.5,248.9,120.4,248.9,120.4,248.9z M120.5,247.4v0.7V247.4
					l111.8-1.3c0.1,0,0.2,0,0.3-0.1c0.8-0.9,2-1.4,3.3-1.1c1.5,0.3,3,0.3,4.5,0.1c5.9-0.8,10.6-5.8,11.1-11.8
					c0.5-5.3-2.3-10.3-7-12.8c-0.3-0.2-0.5-0.5-0.4-0.9c1.3-4,2.3-7.6,3-10.8c3.2-15.4-6.6-46.7-14.3-56.9
					c-7.8-10.3-20.9-16.8-21-16.8c-0.3-0.1-0.4-0.4-0.4-0.7c1.2-20.5-1.3-31.6-9.1-41.2c-4.3-5.3-12.9-9.8-21.7-11.6
					c-10.9-2.1-21.4,0.1-29.6,6.2c-18.5,14-13.3,37.9-13.2,38.1c0.1,0.3-0.1,0.6-0.3,0.8c-0.6,0.4-15.1,10.8-6.8,28.3
					c8.3,17.6,26.1,16.9,26.3,16.9c0.3,0,0.6,0.2,0.7,0.5c0.1,0.3-0.1,0.7-0.4,0.8c-0.8,0.4-1.7,4.7-2.4,8.1
					c-1.2,5.8-2.6,13-5.7,17.2c-2.2,3-9.3,6.6-9.6,6.8c-0.3,0.1-0.6,0.1-0.8-0.1c-5.1-4.4-8.5-4.6-14.6-4.6c-2.7,0-16.3,1-19.2,21.2
					c-2.1,14.7,8,22.3,11.1,24.3C117.4,247,118.9,247.5,120.5,247.4z"/>
			</g>
			<g>
				<path class="st4" d="M206.6,232.9L206.6,232.9c-10.1-1-18.7-12.6-19-21.6c-0.2-6.4,6-15.3,9.7-20.5c1.2-1.7,2.2-3.2,2.6-3.9
					c0.8-1.8-3.5-11.6-6.7-18c-0.2-0.4,0-0.8,0.3-1c0.4-0.2,0.8,0,1,0.3c0,0,2,4,3.9,8.3c3.4,8,3.3,10.1,2.9,11
					c-0.4,0.8-1.3,2.2-2.7,4.1c-3.6,5.1-9.7,13.7-9.4,19.6c0.2,4,2.2,8.8,5.4,12.8c3.5,4.3,7.9,7,12.3,7.4c0.4,0,0.7,0.4,0.6,0.8
					C207.3,232.6,207,232.9,206.6,232.9z"/>
			</g>
			<g>
				<path class="st4" d="M149.3,219.6c-0.3,0-0.6-0.2-0.7-0.5c0-0.1-2.8-7-9.9-13.8c-0.3-0.3-0.3-0.7,0-1s0.7-0.3,1,0
					c7.4,7.1,10.1,14,10.2,14.3c0.1,0.4,0,0.8-0.4,0.9C149.5,219.6,149.4,219.6,149.3,219.6z"/>
			</g>
			<g>
				<path class="st4" d="M129.6,156.4l-0.3-0.6c-6-12.2-0.2-21.2,0-21.6l0.5-0.8l0.6,0.7c0.2,0.2,4.4,5.1,5.3,11.9
					c1,7.2-5.5,10-5.6,10.1L129.6,156.4z M130,135.9c-1.2,2.4-3.9,9.6,0.3,18.6c1.4-0.8,4.8-3.3,4.1-8.2
					C133.7,141.4,131.2,137.5,130,135.9z"/>
			</g>
			<g>
				<path class="st4" d="M150.1,126.7h1.6c0.4,0,0.6,0.5,0.4,0.8l-0.6,0.7c-0.3,0.3-0.7,0.4-1.1,0.3c-0.3-0.1-0.5-0.2-0.8-0.4
					C149,127.5,149.3,126.7,150.1,126.7z"/>
			</g>
			<g>
				<path class="st3" d="M178,98.9c0,0,11.7-3.9,16.9,6.5c4.8,9.6-4.5,17-4.5,17"/>
				<path class="st4" d="M190.5,123.1c-0.2,0-0.4-0.1-0.6-0.3c-0.2-0.3-0.2-0.8,0.1-1c0,0,2.3-1.8,3.9-4.7c2.1-3.8,2.3-7.6,0.4-11.4
					c-2-4-5.3-6.3-9.8-6.7c-3.4-0.3-6.2,0.6-6.3,0.6c-0.4,0.1-0.8-0.1-0.9-0.5c-0.1-0.4,0.1-0.8,0.5-0.9c0.1,0,12.4-3.9,17.8,6.8
					c5,10-4.5,17.8-4.6,17.9C190.8,123,190.6,123.1,190.5,123.1z"/>
			</g>
		</g>
	</g>
	<g>
		<path class="st0" d="M160.4,330.6L160.4,330.6c-0.8-0.6-1.3-1-1.7-1.3c-2.3-2.3-3.5-5.2-3.5-8.5c0-3.3,1.2-6.2,3.5-8.5
			c2.3-2.3,5.2-3.5,8.5-3.5c3.1,0,6.2,1.2,8.3,3.5l1.3,1.3l1.3-1.3c2.3-2.1,5.2-3.5,8.3-3.5c3.3,0,6.2,1.2,8.5,3.5
			c2.3,2.3,3.5,5.2,3.5,8.5c0,3.3-1.2,6.2-3.5,8.5c-0.4,0.4-1,0.8-1.5,1.3H193l-16.5,16.5L160.4,330.6z"/>
		<path d="M186.5,310.6c2.7,0,5.2,1,7.1,2.9c1.9,1.9,2.9,4.4,2.9,7.1c0,2.7-1,5.2-2.9,7.1c-0.4,0.4-0.8,0.8-1.3,1l-0.2,0.2l-0.2,0.2
			l-15,15l-15-15l-0.2-0.2l-0.2-0.2c-0.6-0.4-1-0.8-1.3-1.2c-3.8-3.8-3.8-10.4,0-14.2c1.9-1.9,4.4-2.9,7.1-2.9s5.2,1,6.9,2.9
			l2.7,2.7l2.7-2.7C181.3,311.5,183.8,310.6,186.5,310.6 M186.5,306.7c-3.5,0-6.9,1.3-9.6,3.8c-2.7-2.7-6.2-3.8-9.6-3.8
			s-7.1,1.3-9.8,4c-5.4,5.4-5.4,14.2,0,19.6c0.6,0.6,1.2,1.2,1.7,1.5l17.7,17.7l17.7-17.7c0.6-0.4,1.2-1,1.7-1.5
			c5.4-5.4,5.4-14.2,0-19.6C193.6,308.1,190,306.7,186.5,306.7L186.5,306.7z"/>
	</g>
</g>
<g>
	<path class="st0" d="M27.4,181.9l-2.2-1.3c-0.3-0.2-0.3-0.7-0.1-0.9c0.1-0.1,1.5-1.9,1.6-3.7c0-1-0.6-1.8-1.5-1.8
		c-1.1,0-2,0.9-2.8,2.6c-1,2.2-2.8,5-6,4.9c-2.6-0.1-5.2-2.2-5.1-6.2c0.1-2.7,1.5-4.8,2.2-5.5c0.2-0.3,0.7-0.2,0.9-0.1l2,1.4
		c0.3,0.2,0.5,0.7,0.3,0.9c-0.1,0.2-1.7,2.1-1.7,3.7c0,0.9,0.6,1.7,1.3,1.7c1,0,1.7-0.7,2.7-2.8c0.9-2,2.6-5.2,6.2-5.1
		c2.7,0.1,5.4,2.5,5.3,6.3c-0.1,3.4-1.6,5.2-2.2,5.8C27.8,182,27.7,182.1,27.4,181.9z"/>
	<path class="st0" d="M16.2,163l-0.4,3.7c0,0.3-0.3,0.5-0.6,0.4l-2.9-0.3c-0.3,0-0.5-0.3-0.4-0.6l1.3-11.5c0-0.3,0.3-0.5,0.6-0.4
		l2.9,0.3c0.3,0,0.5,0.3,0.4,0.6l-0.4,3.7l14.1,1.6c0.3,0,0.5,0.3,0.4,0.6l-0.4,3.1c0,0.3-0.3,0.5-0.6,0.4L16.2,163z"/>
	<path class="st0" d="M14.4,150.6c-0.3-0.1-0.4-0.3-0.4-0.6l0.7-3.1c0.1-0.3,0.3-0.4,0.6-0.4l10.5,2.3c1.8,0.4,3.6-0.6,4-2.4
		c0.4-1.8-0.7-3.5-2.6-3.9l-10.5-2.3c-0.3-0.1-0.4-0.3-0.4-0.6l0.7-3.1c0.1-0.3,0.3-0.4,0.6-0.4l10.7,2.4c3.9,0.9,6.5,4.9,5.6,8.9
		c-0.9,4-4.9,6.5-8.8,5.6L14.4,150.6z"/>
	<path class="st0" d="M19.2,130.7c-0.3-0.1-0.4-0.4-0.3-0.6l3.5-10.2c0.1-0.3,0.4-0.4,0.6-0.3l2.7,0.9c0.3,0.1,0.4,0.4,0.3,0.6
		l-2.3,6.8l3.6,1.2l1.9-5.6c0.1-0.2,0.4-0.4,0.6-0.3l2.7,0.9c0.3,0.1,0.4,0.4,0.3,0.6l-1.9,5.6l6.1,2.1c0.3,0.1,0.4,0.4,0.3,0.6
		l-1,2.9c-0.1,0.3-0.4,0.4-0.6,0.3L19.2,130.7z"/>
	<path class="st0" d="M24.6,115.7c-0.2-0.1-0.4-0.4-0.3-0.7l4.4-9.9c0.1-0.3,0.4-0.4,0.7-0.2l2.6,1.2c0.2,0.1,0.4,0.4,0.3,0.7
		l-2.9,6.6l3.5,1.6l2.4-5.4c0.1-0.2,0.4-0.4,0.7-0.2l2.6,1.2c0.2,0.1,0.4,0.4,0.3,0.7l-2.4,5.4l5.9,2.6c0.2,0.1,0.4,0.4,0.3,0.7
		l-1.3,2.8c-0.1,0.3-0.4,0.4-0.7,0.2L24.6,115.7z"/>
	<path class="st0" d="M31.4,101.2c-0.2-0.1-0.3-0.4-0.2-0.7l5.3-9.4c0.1-0.2,0.5-0.3,0.7-0.2l2.5,1.4c0.2,0.1,0.3,0.4,0.2,0.7
		l-3.6,6.3l2.9,1.6l2.9-5.2c0.1-0.2,0.5-0.3,0.7-0.2l2.5,1.4c0.3,0.1,0.3,0.5,0.2,0.7l-2.9,5.2l3.1,1.8l3.6-6.3
		c0.1-0.2,0.5-0.3,0.7-0.2l2.5,1.4c0.2,0.1,0.3,0.4,0.2,0.7l-5.3,9.4c-0.1,0.2-0.5,0.3-0.7,0.2L31.4,101.2z"/>
	<path class="st0" d="M39.8,86.7c-0.2-0.2-0.3-0.5-0.1-0.7l3.7-5.2c3-4.1,8.7-5,12.9-2c4.2,3,5.1,8.8,2.2,12.9l-3.7,5.2
		c-0.2,0.2-0.5,0.2-0.7,0.1L39.8,86.7z M55.1,89.7c1.7-2.4,1.1-5.5-1.4-7.3c-2.4-1.8-5.6-1.4-7.3,1l-1.5,2l8.7,6.3L55.1,89.7z"/>
	<path class="st0" d="M67.2,79.3L60.2,61c-0.1-0.2,0-0.4,0.1-0.5l0.2-0.2c0.1-0.1,0.4-0.2,0.5-0.1l18.4,6.8c0.4,0.1,0.5,0.5,0.2,0.8
		l-2,2.1c-0.3,0.3-0.6,0.4-1.1,0.2l-2.1-0.8l-5,5l0.8,2.2c0.1,0.3,0.2,0.7-0.2,1.1l-2,2C67.7,79.8,67.3,79.7,67.2,79.3z M70.7,67.7
		L66.2,66l0,0l1.7,4.5L70.7,67.7z"/>
	<path class="st0" d="M69.8,52c-0.2-0.2-0.1-0.5,0.1-0.7l0.5-0.4l14.5,1.5l0,0L79.1,45c-0.2-0.2-0.1-0.5,0.1-0.7l2.5-1.9
		c0.2-0.2,0.5-0.1,0.7,0.1l11.1,14c0.2,0.2,0.1,0.5-0.1,0.7L93,57.4c-0.1,0-0.3,0.1-0.3,0.1L78,55.6l0,0l6.1,7.8
		c0.2,0.2,0.1,0.5-0.1,0.7L81.6,66c-0.2,0.2-0.5,0.1-0.7-0.1L69.8,52z"/>
	<path class="st0" d="M87.1,39.3c-0.1-0.2-0.1-0.6,0.1-0.7l2.6-1.7c0.2-0.1,0.5-0.1,0.7,0.2l9.6,14.7c0.1,0.2,0.1,0.6-0.1,0.7
		l-2.6,1.7c-0.2,0.1-0.5,0.1-0.7-0.2L87.1,39.3z"/>
	<path class="st0" d="M96.9,32.7c-0.1-0.2,0-0.5,0.2-0.6l0.4-0.2c0.1-0.1,0.4-0.1,0.5,0l10.6,7.5l0,0l0.2-13c0-0.2,0.2-0.4,0.3-0.4
		l0.4-0.2c0.2-0.1,0.5,0,0.6,0.2l10.7,14.5c0.2,0.3,0.1,0.6-0.2,0.7l-2.7,1.4c-0.2,0.1-0.5,0-0.6-0.2l-4.8-6.8l0,0l0,9.6
		c0,0.2-0.1,0.4-0.3,0.5l-0.4,0.2c-0.1,0.1-0.4,0-0.5-0.1l-7.8-5.6l0,0l2.7,7.8c0.1,0.2,0,0.5-0.2,0.6l-2.7,1.4
		c-0.3,0.1-0.6,0-0.7-0.3L96.9,32.7z"/>
	<path class="st0" d="M121.3,40.3l1.8-19.5c0-0.2,0.1-0.4,0.3-0.4l0.2-0.1c0.2-0.1,0.4,0,0.5,0.1l13.6,14.1c0.3,0.3,0.2,0.7-0.2,0.8
		l-2.7,1c-0.4,0.2-0.7,0.1-1.1-0.3l-1.6-1.7l-6.7,2.4l-0.2,2.3c0,0.3-0.2,0.7-0.7,0.9l-2.7,1C121.6,40.9,121.3,40.7,121.3,40.3z
		 M129.5,31.4l-3.3-3.5l0,0l-0.4,4.8L129.5,31.4z"/>
	<path class="st0" d="M135.5,17.3c-0.1-0.3,0.1-0.5,0.4-0.6l3-0.7c0.3-0.1,0.5,0.1,0.6,0.4l3.3,13.8l6-1.5c0.3-0.1,0.5,0.1,0.6,0.4
		l0.7,2.8c0.1,0.3-0.1,0.5-0.4,0.6l-9.5,2.3c-0.3,0.1-0.5-0.1-0.6-0.4L135.5,17.3z"/>
	<path class="st0" d="M156,13.1c0-0.3,0.2-0.5,0.4-0.5l7.8-0.8c3.1-0.3,5.9,2,6.2,5.2c0.2,2.4-1.2,4.5-3.3,5.7l4.2,6.4
		c0.2,0.3,0.1,0.8-0.4,0.8l-3.5,0.3c-0.2,0-0.4-0.1-0.4-0.2l-4.1-6.7l-1.8,0.2l0.6,6.7c0,0.3-0.2,0.5-0.4,0.5l-3.1,0.3
		c-0.3,0-0.5-0.2-0.5-0.5L156,13.1z M164.7,19.7c1.1-0.1,1.9-1.2,1.8-2.3c-0.1-1.1-1.1-1.9-2.2-1.8l-3.8,0.4l0.4,4.1L164.7,19.7z"/>
	<path class="st0" d="M175,11.6c0-0.3,0.2-0.5,0.5-0.5l10.8,0.2c0.3,0,0.5,0.2,0.5,0.5l0,2.9c0,0.3-0.2,0.5-0.5,0.5l-7.2-0.1
		l-0.1,3.3l5.9,0.1c0.3,0,0.5,0.2,0.5,0.5l0,2.9c0,0.3-0.2,0.5-0.5,0.5l-5.9-0.1l-0.1,3.6l7.2,0.1c0.3,0,0.5,0.2,0.5,0.5l0,2.9
		c0,0.3-0.2,0.5-0.5,0.5l-10.8-0.2c-0.3,0-0.5-0.2-0.5-0.5L175,11.6z"/>
	<path class="st0" d="M188.8,27.4l1.5-2.1c0.2-0.3,0.7-0.2,0.9-0.1c0.1,0.1,1.8,1.7,3.5,1.8c1,0.1,1.9-0.5,2-1.4
		c0.1-1.1-0.7-2-2.4-3c-2.1-1.1-4.7-3.2-4.4-6.4c0.3-2.6,2.6-5,6.6-4.6c2.7,0.3,4.6,1.9,5.3,2.6c0.3,0.2,0.2,0.7,0.1,0.9l-1.5,1.9
		c-0.2,0.3-0.7,0.5-0.9,0.2c-0.2-0.2-2-1.8-3.5-2c-0.9-0.1-1.7,0.5-1.8,1.2c-0.1,1,0.6,1.8,2.6,2.9c1.9,1,5,3,4.6,6.6
		c-0.3,2.7-2.9,5.2-6.7,4.8c-3.4-0.4-5.1-2-5.6-2.7C188.6,27.9,188.5,27.8,188.8,27.4z"/>
	<path class="st0" d="M215.2,15c2.5,0.6,4.3,1.8,5.6,3.8c0.2,0.3,0.1,0.6-0.1,0.7l-2.4,1.7c-0.2,0.1-0.5,0.1-0.6-0.1
		c-0.8-1.1-1.9-1.8-3.2-2.1c-2.9-0.6-5.5,1.3-6.2,4.3c-0.6,2.9,1,5.7,3.9,6.4c1.2,0.3,2.6,0.1,3.7-0.5c0.2-0.1,0.5,0,0.7,0.2
		l1.5,2.6c0.1,0.2,0,0.6-0.2,0.7c-2.1,1.3-4.5,1.7-6.7,1.2c-5.1-1.1-8.3-6.1-7.2-11.3C205.1,17.2,210.1,13.9,215.2,15z"/>
	<path class="st0" d="M225.5,18.3c0.1-0.3,0.4-0.4,0.6-0.3l3,1.1c0.3,0.1,0.4,0.4,0.3,0.6L226,29.9c-0.6,1.8,0.2,3.6,1.9,4.2
		c1.8,0.6,3.6-0.3,4.2-2.1l3.5-10.1c0.1-0.3,0.4-0.4,0.6-0.3l3,1.1c0.2,0.1,0.4,0.4,0.3,0.6L236,33.6c-1.3,3.8-5.6,5.9-9.5,4.5
		c-3.9-1.3-5.9-5.6-4.6-9.4L225.5,18.3z"/>
	<path class="st0" d="M244.8,25.5c0.1-0.2,0.4-0.4,0.7-0.2l9.7,4.7c0.3,0.1,0.3,0.4,0.2,0.7l-1.3,2.6c-0.1,0.2-0.4,0.4-0.7,0.2
		l-6.5-3.1l-1.4,3l5.4,2.6c0.2,0.1,0.3,0.4,0.2,0.7l-1.3,2.6c-0.1,0.3-0.4,0.4-0.7,0.2l-5.4-2.6l-1.6,3.2l6.5,3.1
		c0.3,0.1,0.3,0.4,0.2,0.7l-1.3,2.6c-0.1,0.2-0.4,0.4-0.7,0.2l-9.7-4.7c-0.3-0.1-0.3-0.4-0.2-0.7L244.8,25.5z"/>
	<path class="st0" d="M253.5,49.3l16.7-10.2c0.2-0.1,0.4-0.1,0.5,0l0.2,0.1c0.2,0.1,0.2,0.3,0.2,0.5L268,59.1
		c-0.1,0.4-0.4,0.5-0.8,0.3l-2.4-1.6c-0.4-0.3-0.5-0.5-0.4-1.1l0.4-2.3l-5.9-4l-2,1.2c-0.3,0.2-0.7,0.3-1.1,0l-2.4-1.6
		C253.2,49.9,253.2,49.5,253.5,49.3z M265.6,50.6l0.8-4.7l0,0l-4.1,2.5L265.6,50.6z"/>
	<path class="st0" d="M280.2,46.8c0.2-0.2,0.5-0.2,0.7-0.1l2.4,2c0.2,0.2,0.2,0.5,0.1,0.7l-11,13.7c-0.2,0.2-0.5,0.2-0.7,0.1l-2.4-2
		c-0.2-0.2-0.2-0.5-0.1-0.7L280.2,46.8z"/>
	<path class="st0" d="M287.9,53c0.2-0.2,0.5-0.2,0.7,0l4.6,4.4c3.6,3.5,3.7,9.4,0.2,13c-3.6,3.7-9.4,3.8-13.1,0.4l-4.6-4.4
		c-0.2-0.2-0.2-0.5,0-0.7L287.9,53z M282.8,67.7c2.1,2,5.3,1.8,7.4-0.3c2.1-2.2,2.2-5.3,0.1-7.4l-1.8-1.7L281,66L282.8,67.7z"/>
	<path class="st0" d="M293.6,81.1l2.5-0.4c0.4,0,0.7,0.4,0.7,0.6c0,0.1,0.1,2.5,1.1,3.8c0.6,0.8,1.6,1,2.4,0.4
		c0.9-0.7,1-1.9,0.5-3.8c-0.7-2.3-1-5.6,1.5-7.6c2.1-1.6,5.4-1.6,7.9,1.5c1.7,2.1,1.8,4.7,1.8,5.6c0,0.4-0.4,0.6-0.6,0.6l-2.4,0.2
		c-0.3,0-0.8-0.2-0.8-0.5c0-0.3-0.1-2.7-1-3.9c-0.6-0.7-1.5-0.9-2.1-0.5c-0.8,0.6-0.9,1.7-0.3,3.8c0.6,2.1,1.3,5.7-1.6,7.9
		c-2.2,1.7-5.8,1.5-8.1-1.5c-2.1-2.7-2.1-5-2-5.9C293.1,81.3,293.1,81.2,293.6,81.1z"/>
	<path class="st0" d="M320.9,91.5c2.7,4.5,1.2,10.2-3.3,13c-4.5,2.8-10.3,1.4-13-3.1s-1.3-10.2,3.3-13
		C312.4,85.7,318.2,87,320.9,91.5z M308.2,99.2c1.5,2.5,4.8,3.2,7.2,1.7c2.5-1.5,3.3-4.8,1.8-7.2c-1.5-2.4-4.8-3.2-7.3-1.7
		C307.5,93.5,306.7,96.8,308.2,99.2z"/>
	<path class="st0" d="M331.3,111.3c1.1,2.4,1.1,4.5,0.4,6.8c-0.1,0.3-0.4,0.4-0.7,0.3l-2.8-1c-0.2-0.1-0.4-0.4-0.3-0.6
		c0.4-1.2,0.3-2.6-0.2-3.8c-1.2-2.7-4.4-3.6-7.1-2.4c-2.7,1.2-4,4.2-2.8,6.9c0.5,1.1,1.5,2.1,2.6,2.7c0.2,0.1,0.4,0.4,0.3,0.6
		l-1.2,2.8c-0.1,0.2-0.4,0.4-0.7,0.3c-2.3-0.9-4-2.6-5-4.7c-2.2-4.8,0-10.3,4.8-12.5C323.5,104.4,329.1,106.5,331.3,111.3z"/>
	<path class="st0" d="M334.5,121.4c0.2-0.1,0.6,0.1,0.6,0.3l1,2.9c0.1,0.2-0.1,0.5-0.3,0.6l-16.5,5.9c-0.2,0.1-0.6-0.1-0.6-0.3
		l-1-2.9c-0.1-0.2,0.1-0.5,0.3-0.6L334.5,121.4z"/>
	<path class="st0" d="M337.7,130.5c0.3-0.1,0.5,0.1,0.6,0.3l2.8,10.4c0.1,0.3-0.1,0.5-0.4,0.6l-2.8,0.8c-0.3,0.1-0.5-0.1-0.6-0.3
		l-1.9-7l-3.2,0.9l1.6,5.7c0.1,0.3-0.1,0.5-0.4,0.6l-2.8,0.8c-0.3,0.1-0.5-0.1-0.6-0.3l-1.6-5.7l-3.5,0.9l1.9,7
		c0.1,0.3-0.1,0.5-0.4,0.6l-2.8,0.8c-0.3,0.1-0.5-0.1-0.6-0.3l-2.8-10.4c-0.1-0.3,0.1-0.5,0.4-0.6L337.7,130.5z"/>
	<path class="st0" d="M338.8,149.4l-0.6-3.7c0-0.3,0.1-0.5,0.4-0.6l2.8-0.5c0.3,0,0.5,0.1,0.6,0.4l2,11.4c0,0.3-0.1,0.5-0.4,0.6
		l-2.8,0.5c-0.3,0-0.5-0.1-0.6-0.4l-0.6-3.7l-13.9,2.4c-0.3,0-0.5-0.1-0.6-0.4l-0.5-3.1c0-0.3,0.1-0.5,0.4-0.6L338.8,149.4z"/>
	<path class="st0" d="M335.3,165.9l8.4-6.4c0.3-0.2,0.8-0.1,0.8,0.4l0.3,3.4c0,0.2-0.1,0.3-0.2,0.4l-5.1,4l5.7,3.2
		c0.1,0.1,0.3,0.2,0.3,0.4l0.3,3.4c0,0.4-0.4,0.7-0.7,0.5l-9.3-5.1l-8.4,0.7c-0.3,0-0.5-0.2-0.5-0.5l-0.2-3.1c0-0.3,0.2-0.5,0.5-0.5
		L335.3,165.9z"/>
</g>
</svg>
